<svg width="22" height="22" viewBox="0 0 22 22" fill="none" xmlns="http://www.w3.org/2000/svg">
<g clip-path="url(#clip0_1665_8822)">
<g clip-path="url(#clip1_1665_8822)">
<path d="M16.7302 15.4568L21.0132 19.7388L19.5982 21.1538L15.3162 16.8708C13.7229 18.148 11.7412 18.8427 9.69922 18.8398C4.73122 18.8398 0.699219 14.8078 0.699219 9.83984C0.699219 4.87184 4.73122 0.839844 9.69922 0.839844C14.6672 0.839844 18.6992 4.87184 18.6992 9.83984C18.7021 11.8818 18.0074 13.8635 16.7302 15.4568ZM14.7242 14.7148C15.9933 13.4097 16.7021 11.6602 16.6992 9.83984C16.6992 5.97184 13.5662 2.83984 9.69922 2.83984C5.83122 2.83984 2.69922 5.97184 2.69922 9.83984C2.69922 13.7068 5.83122 16.8398 9.69922 16.8398C11.5196 16.8427 13.2691 16.1339 14.5742 14.8648L14.7242 14.7148Z" fill="#EC1C24"/>
</g>
</g>
<defs>
<clipPath id="clip0_1665_8822">
<rect width="20.3" height="20.3" fill="white" transform="translate(0.699219 0.839844)"/>
</clipPath>
<clipPath id="clip1_1665_8822">
<rect width="21" height="21" fill="white" transform="translate(0.699219 0.839844)"/>
</clipPath>
</defs>
</svg>
